<?xml version="1.0" encoding="utf-8"?>
<!-- Generator: Adobe Illustrator 28.1.0, SVG Export Plug-In . SVG Version: 6.00 Build 0)  -->
<svg version="1.1" id="Calque_1" xmlns="http://www.w3.org/2000/svg" xmlns:xlink="http://www.w3.org/1999/xlink" x="0px" y="0px"
	 viewBox="0 0 595.3 841.9" style="enable-background:new 0 0 595.3 841.9;" xml:space="preserve">
<style type="text/css">
	.st0{fill:#312783;stroke:#FFFFFF;stroke-width:2;stroke-miterlimit:10;}
	.st1{fill:#36A9E1;stroke:#FFFFFF;stroke-width:2;stroke-miterlimit:10;}
	.st2{fill:#312783;}
	.st3{fill:none;stroke:#312783;stroke-width:5;stroke-miterlimit:10;}
	.st4{fill:none;stroke:#36A9E1;stroke-width:4;stroke-miterlimit:10;}
	.st5{fill:#F39200;}
	.st6{fill:none;stroke:#006633;stroke-width:4;stroke-miterlimit:10;}
	.st7{fill:#F39200;stroke:#FFFFFF;stroke-width:2;stroke-miterlimit:10;}
	.st8{fill:none;}
	.st9{fill:#F39200;stroke:#FFFFFF;stroke-width:3;stroke-miterlimit:10;}
	.st10{fill:#3C3C3B;stroke:#FFFFFF;stroke-width:3;stroke-miterlimit:10;}
</style>
<g>
</g>
<g>
</g>
<g>
	<g>
		<path class="st0" d="M168,260.8L168,260.8c0,3.1-2.5,5.6-5.6,5.6h-8.1c-3.1,0-5.6-2.5-5.6-5.6v-0.4c3.2,0.7,6.7,1.1,10.5,1.1
			C162.3,261.4,165.3,261.2,168,260.8z"/>
		<path class="st0" d="M168,197.4v49.4c-2.3,1-5.2,1.5-8.6,1.5c-4.4,0-8-1-10.7-3.1v-48.4c2.4-1.4,5.6-2.1,9.5-2.1
			C162.5,194.8,165.8,195.7,168,197.4L168,197.4z"/>
		<path class="st0" d="M196.3,170.7v16.2h-18c-4.8-3.3-11.5-5-20-5c-5.9,0-10.9,0.9-15.1,2.7c-1.5,0.7-2.9,1.4-4.2,2.3h-18.7v-16.2
			H196.3z"/>
	</g>
	<g>
		<path class="st1" d="M174,205.8l-1.8,0.1c-0.7-3.9-2.1-6.8-4.3-8.5l0,0c-2.2-1.7-5.5-2.6-9.8-2.6c-3.9,0-7.1,0.7-9.5,2.1
			c-0.4,0.2-0.7,0.4-1.1,0.7c-1.6,1.2-2.5,2.8-2.5,4.8c0,1.8,0.8,3.4,2.3,4.7c0.3,0.3,0.8,0.6,1.3,0.9v16.8
			c-5.1-1.7-8.9-3.6-11.3-5.8c-4.7-4.2-7.1-9.4-7.1-15.5c0-3.9,1.1-7.6,3.3-11c1.4-2.2,3.2-4,5.4-5.5c1.3-0.9,2.7-1.6,4.2-2.3
			c4.2-1.8,9.2-2.7,15.1-2.7c8.5,0,15.2,1.7,20,5c0.6,0.4,1.2,0.9,1.8,1.4c0,0,0.1,0.1,0.1,0.1C186.9,194.3,182.9,205.4,174,205.8z"
			/>
		<path class="st1" d="M189.9,237.7c0,4.4-1.2,8.5-3.7,12.4c-2.4,3.8-5.9,6.7-10.4,8.6c-2.3,1-5,1.7-7.9,2.2
			c-2.7,0.4-5.6,0.6-8.8,0.6c-3.9,0-7.4-0.4-10.5-1.1c-4.8-1.1-8.7-3-11.8-5.7c-0.5-0.4-1-0.9-1.5-1.4c-6.8-7-2.5-18.8,7.2-19.7h0
			c0.9,5.1,2.8,8.8,5.5,11.2c0.2,0.2,0.4,0.3,0.5,0.4c2.7,2.1,6.3,3.1,10.7,3.1c3.5,0,6.3-0.5,8.6-1.5c1-0.4,1.9-1,2.7-1.6
			c2.5-2.1,3.8-4.6,3.8-7.4c0-1.8-0.5-3.4-1.6-4.6c-1-1.2-2.6-2.2-4.9-3.1v-16.3c4.4,1.3,7.9,2.6,10.4,3.9c3.6,1.9,6.4,4.5,8.5,7.8
			C188.9,228.8,189.9,232.9,189.9,237.7z"/>
	</g>
	<g>
		<path class="st2" d="M100.9,281.1v-7.3c0-2,1.6-3.7,3.7-3.7h0l2.2,8.3l2.2-8.3l0,0c2,0,3.7,1.6,3.7,3.7v7.3c0,0.6-0.5,1.1-1.1,1.1
			h0c-0.6,0-1.1-0.5-1.1-1.1v-8.4l-2.1,8.4c-0.2,0.7-0.8,1.1-1.5,1.1l0,0c-0.7,0-1.3-0.5-1.5-1.1l-2.1-8.4v8.4
			c0,0.6-0.5,1.1-1.1,1.1h0C101.4,282.2,100.9,281.7,100.9,281.1z"/>
		<path class="st2" d="M115.1,278.5v-4.7c0-2,1.7-3.7,3.7-3.7h4.3c0.6,0,1,0.5,1,1l0,0c0,0.6-0.5,1-1,1h-5.5v2.7h5.1
			c0.6,0,1,0.5,1,1l0,0c0,0.6-0.5,1-1,1h-5.1v3.3h5.8c0.6,0,1,0.5,1,1l0,0c0,0.6-0.5,1-1,1h-4.5
			C116.7,282.2,115.1,280.6,115.1,278.5z"/>
		<path class="st2" d="M126.3,273.4c0-1.8,1.5-3.3,3.3-3.3h1.2c1,0,1.8,0.1,2.3,0.2c0.7,0.2,1.3,0.6,1.8,1.1c0.5,0.5,0.9,1.2,1.2,2
			s0.4,1.7,0.4,2.9c0,1-0.1,1.9-0.4,2.6c-0.3,0.9-0.7,1.6-1.3,2.1c-0.4,0.4-1,0.7-1.7,1c-0.5,0.2-1.3,0.3-2.2,0.3h-1.3
			c-1.8,0-3.3-1.5-3.3-3.3V273.4z M128.8,272.1v8h1.8c0.7,0,1.2,0,1.5-0.1c0.4-0.1,0.7-0.3,1-0.5c0.3-0.2,0.5-0.6,0.6-1.2
			c0.2-0.5,0.2-1.3,0.2-2.2s-0.1-1.7-0.2-2.2s-0.4-0.9-0.7-1.2c-0.3-0.3-0.7-0.5-1.1-0.6c-0.3-0.1-1-0.1-2-0.1H128.8z"/>
		<path class="st2" d="M137.5,280.6L137.5,280.6c0-0.4,0.1-0.7,0.4-1l6-7.4h-4.6c-0.6,0-1-0.5-1-1l0,0c0-0.6,0.5-1,1-1h6.4
			c0.8,0,1.4,0.6,1.4,1.4l0,0c0,0.3-0.1,0.6-0.3,0.9l-6.3,7.8h5.9c0.6,0,1,0.5,1,1l0,0c0,0.6-0.5,1-1,1h-7.2
			C138.3,282.2,137.5,281.5,137.5,280.6z"/>
		<path class="st2" d="M158.1,282.2L158.1,282.2c-0.5,0-1-0.3-1.1-0.8l-0.8-2h-4.8l-0.7,2c-0.2,0.5-0.6,0.8-1.1,0.8h0
			c-0.8,0-1.4-0.8-1.1-1.6l3.6-9.3c0.3-0.7,1-1.2,1.8-1.2l0,0c0.8,0,1.5,0.5,1.8,1.2l3.7,9.2C159.5,281.3,158.9,282.2,158.1,282.2z
			 M155.4,277.4l-1.7-4.5l-1.6,4.5H155.4z"/>
		<path class="st2" d="M173.7,282.2L173.7,282.2c-0.5,0-1-0.3-1.1-0.8l-0.8-2H167l-0.7,2c-0.2,0.5-0.6,0.8-1.1,0.8l0,0
			c-0.8,0-1.4-0.8-1.1-1.6l3.6-9.3c0.3-0.7,1-1.2,1.8-1.2l0,0c0.8,0,1.5,0.5,1.8,1.2l3.7,9.2C175.2,281.3,174.6,282.2,173.7,282.2z
			 M171.1,277.4l-1.7-4.5l-1.6,4.5H171.1z"/>
		<path class="st2" d="M182.6,281.1v-0.2c-0.3,0.5-0.7,0.8-1.3,1.1c-0.5,0.3-1.1,0.4-1.7,0.4c-0.6,0-1.1-0.1-1.6-0.4s-0.8-0.6-1-1.1
			c-0.2-0.5-0.3-1.1-0.3-1.9v-4.4c0-0.6,0.5-1.2,1.2-1.2l0,0c0.6,0,1.2,0.5,1.2,1.2v2.9c0,1.2,0,2,0.1,2.3s0.2,0.5,0.5,0.7
			c0.2,0.2,0.5,0.2,0.9,0.2c0.4,0,0.8-0.1,1.1-0.3c0.3-0.2,0.5-0.5,0.6-0.8c0.1-0.3,0.2-1.1,0.2-2.4v-2.5c0-0.6,0.5-1.2,1.2-1.2l0,0
			c0.6,0,1.2,0.5,1.2,1.2v6.5c0,0.6-0.5,1.1-1.1,1.1l0,0C183.1,282.2,182.6,281.7,182.6,281.1z"/>
		<path class="st2" d="M194.2,282.2L194.2,282.2c-0.6,0-1.1-0.5-1.1-1.1v-0.2c-0.4,0.5-0.8,0.9-1.3,1.1c-0.5,0.2-1,0.4-1.5,0.4
			c-1,0-1.9-0.4-2.6-1.2c-0.7-0.8-1.1-1.9-1.1-3.4c0-1.5,0.4-2.6,1.1-3.4c0.7-0.8,1.6-1.2,2.7-1.2c1,0,1.8,0.4,2.5,1.2v-3.2
			c0-0.6,0.5-1.2,1.2-1.2l0,0c0.6,0,1.2,0.5,1.2,1.2v9.9C195.3,281.7,194.8,282.2,194.2,282.2z M189.1,277.6c0,0.9,0.1,1.6,0.4,2
			c0.4,0.6,0.9,0.9,1.6,0.9c0.5,0,1-0.2,1.4-0.7s0.6-1.1,0.6-2c0-1-0.2-1.7-0.5-2.2c-0.4-0.4-0.8-0.7-1.4-0.7c-0.6,0-1,0.2-1.4,0.7
			S189.1,276.8,189.1,277.6z"/>
		<path class="st2" d="M198.6,282.2L198.6,282.2c-0.6,0-1.2-0.5-1.2-1.2v-6.5c0-0.6,0.5-1.1,1.1-1.1l0,0c0.6,0,1.1,0.5,1.1,1.1v0.2
			c0.4-0.6,0.7-1,1-1.2s0.6-0.3,1-0.3c0.1,0,0.2,0,0.4,0c0.7,0.1,1,0.8,0.8,1.4l0,0c-0.2,0.5-0.7,0.8-1.2,0.7c-0.1,0-0.2,0-0.2,0
			c-0.3,0-0.6,0.1-0.8,0.3c-0.2,0.2-0.4,0.5-0.5,1c-0.1,0.5-0.2,1.5-0.2,2.9v1.6C199.8,281.7,199.3,282.2,198.6,282.2z"/>
		<path class="st2" d="M209.2,279.4l2.3,0.4c-0.3,0.8-0.8,1.5-1.4,1.9s-1.4,0.7-2.4,0.7c-1.5,0-2.7-0.5-3.4-1.5
			c-0.6-0.8-0.9-1.8-0.9-3c0-1.5,0.4-2.6,1.1-3.4c0.8-0.8,1.7-1.2,2.9-1.2c1.3,0,2.3,0.4,3.1,1.3c0,0,0,0,0,0
			c1.3,1.5,0.1,3.9-1.9,3.9h-2.9c0,0.7,0.2,1.2,0.6,1.6c0.4,0.4,0.8,0.6,1.3,0.6c0.4,0,0.7-0.1,0.9-0.3
			C208.9,280.2,209.1,279.9,209.2,279.4z M209.4,277.1c0-0.7-0.2-1.2-0.5-1.5c-0.3-0.4-0.7-0.5-1.2-0.5c-0.5,0-0.9,0.2-1.3,0.6
			c-0.3,0.4-0.5,0.9-0.5,1.5H209.4z"/>
		<path class="st2" d="M214.1,273.4L214.1,273.4c0.5,0,1,0.3,1.1,0.8l1.8,5.5l1.8-5.5c0.2-0.5,0.6-0.8,1.1-0.8l0,0
			c0.8,0,1.3,0.8,1,1.5l-2.6,7l-0.6,1.5c-0.2,0.5-0.4,0.9-0.6,1.2c-0.2,0.3-0.4,0.5-0.6,0.7c-0.2,0.2-0.5,0.3-0.9,0.4
			s-0.7,0.1-1.2,0.1c-0.2,0-0.4,0-0.6,0c-0.4,0-0.7-0.4-0.7-0.7l0-0.2c-0.1-0.5,0.3-0.9,0.9-0.9c0,0,0,0,0,0c0.5,0,0.9-0.2,1.2-0.5
			c0.3-0.3,0.5-0.7,0.6-1.2l-2.8-7.3C212.8,274.2,213.3,273.4,214.1,273.4z"/>
	</g>
	<circle class="st3" cx="161" cy="232.4" r="86.6"/>
	<circle class="st4" cx="161" cy="232.4" r="83.5"/>
</g>
<g>
	<g>
		<g>
			<path class="st5" d="M394.1,288.9v-6.1l-0.8-17l-41.7-0.3l-10.5,25.3h0c-13.3,0-22.6-10.3-18.2-20.2l35.7-80.3
				c2.8-6.4,10.5-10.7,19.1-10.7h12.7L394.1,288.9z M394.1,246.7l-17.5-41.3l-17.1,41.3H394.1z"/>
		</g>
		<g>
			<path d="M376.8,193c0-7.4,5.9-13.4,13.2-13.4h26c7.8,0,13.5,0.4,17.3,1.1c3.8,0.7,7.2,2.3,10.2,4.6c3,2.3,5.5,5.4,7.5,9.3
				c2,3.9,3,8.2,3,13c0,5.2-1.2,10-3.7,14.3c-2.5,4.3-5.8,7.6-10.1,9.8c6,2,10.6,5.3,13.8,10.1c3.2,4.8,4.8,10.3,4.8,16.8
				c0,5.1-1,10-3.1,14.7c-2.1,4.8-4.9,8.6-8.5,11.5c-3.6,2.9-8,4.6-13.3,5.3c-3.3,0.4-11.3,0.7-23.9,0.8h-33.4V193z M396.6,198.1
				v25.7h13c7.7,0,12.5-0.1,14.4-0.4c3.4-0.5,6.1-1.8,8-4c1.9-2.2,2.9-5.1,2.9-8.7c0-3.4-0.8-6.2-2.5-8.4c-1.7-2.1-4.2-3.4-7.5-3.9
				c-2-0.3-7.6-0.4-16.9-0.4H396.6z M396.6,242.3V272h18.3c7.1,0,11.7-0.2,13.6-0.7c2.9-0.6,5.3-2.1,7.2-4.4
				c1.8-2.4,2.8-5.5,2.8-9.4c0-3.3-0.7-6.2-2.1-8.5c-1.4-2.3-3.5-4-6.2-5.1c-2.7-1.1-8.5-1.6-17.6-1.6H396.6z"/>
		</g>
	</g>
	<g>
		<path d="M322.9,311.7v-11.9c0-3.3,1.9-5.9,4.2-5.9l0,0l2.5,13.4l2.5-13.4l0,0c2.3,0,4.3,2.7,4.3,5.9v11.9c0,1-0.6,1.8-1.3,1.8h0
			c-0.7,0-1.3-0.8-1.3-1.8v-13.6l-2.5,13.6c-0.2,1.1-0.9,1.9-1.7,1.9l0,0c-0.8,0-1.5-0.8-1.7-1.9l-2.4-13.6v13.6
			c0,1-0.6,1.8-1.3,1.8l0,0C323.5,313.5,322.9,312.7,322.9,311.7z"/>
		<path d="M339.2,307.5v-7.6c0-3.3,1.9-6,4.3-6h4.9c0.7,0,1.2,0.7,1.2,1.7l0,0c0,0.9-0.5,1.7-1.2,1.7h-6.4v4.4h5.9
			c0.7,0,1.2,0.7,1.2,1.7l0,0c0,0.9-0.5,1.7-1.2,1.7h-5.9v5.3h6.7c0.7,0,1.2,0.7,1.2,1.7l0,0c0,0.9-0.5,1.7-1.2,1.7h-5.2
			C341.2,313.5,339.2,310.8,339.2,307.5z"/>
		<path d="M352.3,299.3c0-3,1.7-5.4,3.8-5.4h1.4c1.2,0,2.1,0.1,2.7,0.4c0.8,0.3,1.5,0.9,2.1,1.8c0.6,0.9,1,1.9,1.3,3.2
			c0.3,1.3,0.5,2.8,0.5,4.6c0,1.6-0.1,3-0.4,4.2c-0.4,1.4-0.9,2.6-1.5,3.5c-0.5,0.7-1.2,1.2-2,1.6c-0.6,0.3-1.5,0.4-2.5,0.4h-1.5
			c-2.1,0-3.8-2.4-3.8-5.4V299.3z M355.1,297.2v13h2.1c0.8,0,1.4-0.1,1.7-0.2c0.5-0.2,0.8-0.4,1.1-0.8c0.3-0.4,0.6-1,0.7-1.9
			s0.3-2.1,0.3-3.6c0-1.5-0.1-2.7-0.3-3.5s-0.5-1.4-0.8-1.9c-0.3-0.5-0.8-0.8-1.3-0.9c-0.4-0.1-1.2-0.2-2.3-0.2H355.1z"/>
		<path d="M365.3,310.9L365.3,310.9c0-0.6,0.1-1.2,0.4-1.7l7-12h-5.4c-0.7,0-1.2-0.7-1.2-1.7l0,0c0-0.9,0.5-1.7,1.2-1.7h7.5
			c0.9,0,1.6,1,1.6,2.3l0,0c0,0.5-0.1,1-0.4,1.4l-7.3,12.6h6.8c0.7,0,1.2,0.7,1.2,1.7l0,0c0,0.9-0.5,1.7-1.2,1.7h-8.3
			C366.1,313.5,365.3,312.4,365.3,310.9z"/>
		<path d="M389,313.5L389,313.5c-0.6,0-1.1-0.5-1.3-1.3l-0.9-3.2h-5.6l-0.8,3.2c-0.2,0.8-0.7,1.3-1.3,1.3l0,0c-1,0-1.6-1.4-1.3-2.7
			l4.2-15c0.3-1.2,1.1-2,2.1-2l0,0c0.9,0,1.7,0.8,2,1.9l4.3,15C390.7,312.1,390,313.5,389,313.5z M385.9,305.8l-1.9-7.3l-1.9,7.3
			H385.9z"/>
		<path d="M407.2,313.5L407.2,313.5c-0.6,0-1.1-0.5-1.3-1.3l-0.9-3.2h-5.6l-0.8,3.2c-0.2,0.8-0.7,1.3-1.3,1.3l0,0
			c-1,0-1.6-1.4-1.3-2.7l4.2-15c0.3-1.2,1.1-2,2.1-2h0c0.9,0,1.7,0.8,2,1.9l4.3,15C408.9,312.1,408.2,313.5,407.2,313.5z M404,305.8
			l-1.9-7.3l-1.9,7.3H404z"/>
		<path d="M417.4,311.8v-0.4c-0.4,0.8-0.9,1.4-1.5,1.8c-0.6,0.4-1.2,0.7-1.9,0.7c-0.7,0-1.3-0.2-1.8-0.6c-0.5-0.4-0.9-1-1.2-1.8
			s-0.4-1.8-0.4-3.1v-7.1c0-1,0.6-1.9,1.3-1.9l0,0c0.7,0,1.3,0.8,1.3,1.9v4.7c0,2,0,3.2,0.1,3.7c0.1,0.5,0.3,0.8,0.5,1.1
			c0.3,0.3,0.6,0.4,1,0.4c0.5,0,0.9-0.2,1.2-0.5c0.4-0.4,0.6-0.8,0.7-1.3s0.2-1.8,0.2-3.8v-4.1c0-1,0.6-1.9,1.3-1.9l0,0
			c0.7,0,1.3,0.8,1.3,1.9v10.6c0,1-0.6,1.7-1.2,1.7l0,0C418,313.5,417.4,312.8,417.4,311.8z"/>
		<path d="M430.8,313.5L430.8,313.5c-0.7,0-1.2-0.8-1.2-1.7v-0.3c-0.4,0.8-0.9,1.4-1.5,1.8s-1.1,0.6-1.7,0.6c-1.2,0-2.2-0.7-3-2
			s-1.2-3.2-1.2-5.5c0-2.4,0.4-4.2,1.2-5.5c0.8-1.3,1.8-1.9,3.1-1.9c1.1,0,2.1,0.7,2.9,2v-5.2c0-1,0.6-1.9,1.3-1.9l0,0
			c0.7,0,1.3,0.8,1.3,1.9v16C432.1,312.8,431.5,313.5,430.8,313.5z M424.9,306.1c0,1.5,0.1,2.6,0.4,3.3c0.4,1,1,1.5,1.8,1.5
			c0.6,0,1.1-0.4,1.6-1.1s0.7-1.8,0.7-3.3c0-1.6-0.2-2.8-0.6-3.5c-0.4-0.7-1-1.1-1.6-1.1c-0.6,0-1.2,0.4-1.6,1.1
			C425.1,303.6,424.9,304.7,424.9,306.1z"/>
		<path d="M435.9,313.5L435.9,313.5c-0.7,0-1.3-0.8-1.3-1.9v-10.6c0-1,0.6-1.7,1.2-1.7l0,0c0.7,0,1.2,0.8,1.2,1.7v0.3
			c0.4-1,0.8-1.6,1.2-1.9s0.7-0.5,1.2-0.5c0.1,0,0.3,0,0.4,0c0.8,0.1,1.2,1.3,1,2.3l0,0c-0.2,0.8-0.8,1.2-1.4,1.1
			c-0.1,0-0.2,0-0.3,0c-0.4,0-0.7,0.1-1,0.4c-0.3,0.3-0.5,0.8-0.6,1.6c-0.1,0.8-0.2,2.3-0.2,4.8v2.5
			C437.3,312.7,436.7,313.5,435.9,313.5z"/>
		<path d="M448.2,309l2.7,0.6c-0.3,1.4-0.9,2.4-1.6,3.1s-1.7,1.1-2.8,1.1c-1.8,0-3.1-0.8-3.9-2.4c-0.7-1.3-1-2.9-1-4.9
			c0-2.4,0.4-4.2,1.3-5.5c0.9-1.3,2-2,3.3-2c1.5,0,2.7,0.7,3.6,2.1c0,0,0,0,0,0c1.5,2.5,0.1,6.4-2.2,6.4h-3.3c0,1.1,0.2,2,0.7,2.6
			c0.4,0.6,0.9,0.9,1.6,0.9c0.4,0,0.8-0.2,1.1-0.5C447.9,310.2,448.1,309.7,448.2,309z M448.4,305.2c0-1.1-0.2-1.9-0.6-2.5
			c-0.4-0.6-0.8-0.9-1.4-0.9c-0.6,0-1.1,0.3-1.5,0.9s-0.6,1.4-0.6,2.4H448.4z"/>
		<path d="M453.8,299.3L453.8,299.3c0.6,0,1.1,0.5,1.3,1.2l2.1,8.9l2.1-8.9c0.2-0.7,0.7-1.2,1.2-1.2l0,0c0.9,0,1.5,1.3,1.2,2.4
			l-3,11.3l-0.6,2.5c-0.2,0.8-0.5,1.5-0.7,1.9c-0.2,0.4-0.5,0.8-0.7,1.1c-0.3,0.3-0.6,0.5-1,0.6s-0.9,0.2-1.4,0.2
			c-0.3,0-0.5,0-0.7-0.1c-0.5-0.1-0.8-0.6-0.9-1.2l0-0.2c-0.1-0.8,0.4-1.5,1-1.5c0,0,0,0,0,0c0.6,0,1.1-0.3,1.4-0.8
			c0.3-0.5,0.5-1.2,0.7-2l-3.2-11.8C452.3,300.6,452.9,299.3,453.8,299.3z"/>
	</g>
</g>
<g>
	<g>
		<path class="st6" d="M107.8,428.8h25.6v59.4c0,9.4,0.3,15.5,1,18.3c1.1,4.5,3.7,8.1,7.8,10.8c4.1,2.7,9.8,4.1,16.9,4.1
			c7.3,0,12.7-1.3,16.4-3.9c3.7-2.6,5.9-5.7,6.7-9.5c0.7-3.7,1.1-9.9,1.1-18.6v-60.6h25.6v57.6c0,13.2-0.7,22.5-2.1,27.9
			c-1.4,5.4-3.9,10-7.7,13.8c-3.7,3.7-8.7,6.7-14.9,8.9c-6.2,2.2-14.4,3.3-24.4,3.3c-12.1,0-21.3-1.2-27.5-3.6
			c-6.3-2.4-11.2-5.6-14.8-9.4c-3.6-3.9-6-7.9-7.2-12.2c-1.7-6.3-2.5-15.6-2.5-27.8V428.8z"/>
	</g>
	<g>
		<path class="st7" d="M139.7,504.9l-39.9-96.6h27.8l32.1,81.1l31-81.1h27.1l-40,96.6c-3.3,7.9-10.8,13-19,13h0
			C150.4,517.9,143,512.8,139.7,504.9z"/>
	</g>
	<path id="SVGID_x5F_1_x5F_" class="st8" d="M112.6,448.8l0.4,42.9c0.2,23.6,20.4,42.6,45.1,42.6h0c24.2-0.1,44-18.5,44.7-41.7
		l1.3-42.7"/>
	<text>	<textPath  xlink:href="#SVGID_x5F_1_x5F_" startOffset="3.8281%">
<tspan  style="fill:#006633; font-family:'Arial-BoldMT'; font-size:5.1084px;">ENTEE ICI LE NOM DE VOTRE ENTREPRISE SUIVI DE VOTRE BRILANTE SLOGAN</tspan>	</textPath>
</text>
</g>
<g>
	<g>
		<path class="st9" d="M450,508.4c0.1,0.8-0.4,1.5-1.1,1.8c-4.5,1.9-9.5,2.8-15.1,2.8c-3.7,0-7.1-0.7-10-2.1c-3-1.4-5.2-3.1-6.5-5.3
			c-1.4-2.2-2.3-5.1-2.9-8.8c-0.4-2.6-0.6-7.9-0.6-15.8l0-12.3l0.1-21.4l0-1.5c0-1-0.8-1.8-1.8-1.8l-0.5,0c-1,0-1.8-0.8-1.8-1.8
			v-10.1c0-1.3-0.3-2.4-0.8-3.5c-0.6-1.2,0.3-2.6,1.6-2.6l1.5,0c1,0,1.8-0.8,1.8-1.8l0.1-14.1c0-0.6,0.3-1.2,0.8-1.5l17.2-10.8
			c1.2-0.7,2.7,0.1,2.7,1.5l-0.1,24.9c0,1,0.8,1.8,1.8,1.8l0,0c1.3,0,2.1,1.3,1.6,2.5c-0.5,1-0.7,2.2-0.7,3.4v9.8
			c0,0.7,0.4,1.3,1.1,1.6c0.4,0.2,0.8,0.4,1.2,0.6l-3.3,0c-1,0-1.8,0.8-1.8,1.8l0,1.2l-0.1,20.8l0,10.3c0,6.9,0.1,10.9,0.4,12.1
			c0.3,1.1,0.9,2.1,1.8,2.8c1,0.7,2.1,1.1,3.5,1.1c1.5,0,3.6-0.4,6.2-1.3c1.1-0.4,2.2,0.4,2.4,1.5L450,508.4z"/>
	</g>
	<path class="st10" d="M483.5,483.5c0,19.8-5.3,35.3-16,46.5c-10.6,11.2-24.9,16.8-42.7,16.8c-18,0-32.4-5.6-43-16.7
		c-10.6-11.1-16-26.5-16-46c0-12.5,1.8-23,5.5-31.5c2.8-6.3,6.5-11.9,11.3-16.8c4.8-5,10-8.7,15.7-11.1c0,0,0.1,0,0.1,0
		c3.1-1.3,6.5-0.5,8.7,1.5c1.6,1.5,2.7,3.6,2.7,6.1v12c-3.6,1.7-6.7,4.2-9.5,7.3c-6.2,7-9.3,17.6-9.3,31.7c0,13.9,3.2,24.4,9.5,31.6
		c6.3,7.2,14.4,10.8,24.1,10.8c9.8,0,17.8-3.6,24-10.7c6.3-7.1,9.4-17.8,9.4-32.1c0-14.1-3-24.6-9.1-31.5c-2.7-3.1-5.9-5.5-9.4-7.2
		c-0.7-0.4-1.5-0.7-2.3-1v-11c0-2.3,0.9-4.4,2.4-5.9c2.3-2.4,6-3.5,9.5-2c6.9,2.8,13,6.9,18.2,12.4
		C478.1,447.9,483.5,463.5,483.5,483.5z"/>
	<path id="SVGID_x5F_00000045620887259195947930000001780401348872852357_x5F_" class="st8" d="M379.6,505.7l7,11.9
		c11.4,19.3,35.7,26.7,55.9,16.9l0,0c18.6-9,28.2-30,22.9-50l-2.8-10.4"/>
	<text>	<textPath  xlink:href="#SVGID_x5F_00000045620887259195947930000001780401348872852357_x5F_" startOffset="4.6875%">
<tspan  style="fill:#FFFFFF; font-family:'Arial-BoldMT'; font-size:13.4938px;">MEDZA Audrey</tspan>	</textPath>
</text>
</g>
<g>
	<g>
		<path class="st9" d="M324.3,718.5c0.1,1.1-0.5,2-1.5,2.5c-6.1,2.5-12.8,3.7-20.3,3.7c-5,0-9.5-0.9-13.5-2.8c-4-1.8-7-4.2-8.8-7.1
			c-1.9-2.9-3.2-6.8-3.9-11.8c-0.6-3.5-0.8-10.6-0.8-21.3l0.1-16.6l0.1-28.8l0-2.1c0-1.3-1.1-2.4-2.4-2.4l-0.6,0
			c-1.3,0-2.4-1.1-2.4-2.4v-13.6c0-1.7-0.4-3.3-1-4.7c-0.8-1.6,0.4-3.4,2.1-3.4l2,0c1.3,0,2.4-1.1,2.4-2.4l0.1-19
			c0-0.8,0.4-1.6,1.1-2l23.2-14.5c1.6-1,3.7,0.2,3.7,2l-0.1,33.6c0,1.3,1.1,2.4,2.4,2.4l0,0c1.7,0,2.9,1.8,2.2,3.4
			c-0.6,1.4-1,3-1,4.6V629c0,1,0.6,1.8,1.4,2.2c0.6,0.2,1.1,0.5,1.7,0.8l-4.4,0c-1.3,0-2.4,1.1-2.4,2.4l0,1.7l-0.1,28.1l-0.1,13.9
			c0,9.3,0.1,14.8,0.5,16.3c0.4,1.5,1.2,2.8,2.5,3.8c1.3,1,2.9,1.5,4.7,1.5c2,0,4.8-0.6,8.3-1.8c1.5-0.5,3,0.5,3.2,2L324.3,718.5z"
			/>
	</g>
	<path class="st10" d="M369.4,684.9c0,26.7-7.2,47.7-21.5,62.8c-14.3,15.1-33.5,22.7-57.5,22.7c-24.3,0-43.6-7.5-58-22.5
		c-14.3-15-21.5-35.7-21.5-62.1c0-16.9,2.5-31,7.5-42.5c3.7-8.4,8.8-16,15.2-22.7c6.4-6.7,13.5-11.7,21.1-14.9c0,0,0.1,0,0.1-0.1
		c4.2-1.8,8.7-0.7,11.7,2.1c2.2,2,3.6,4.9,3.6,8.2V632c-4.8,2.3-9.1,5.6-12.8,9.9c-8.3,9.5-12.5,23.7-12.5,42.8
		c0,18.8,4.3,33,12.8,42.6c8.6,9.7,19.4,14.5,32.6,14.5c13.2,0,24-4.8,32.4-14.4c8.4-9.6,12.7-24,12.7-43.2c0-19-4.1-33.1-12.3-42.5
		c-3.7-4.2-7.9-7.5-12.7-9.8c-1-0.5-2-0.9-3.1-1.3v-14.8c0-3.2,1.2-5.9,3.2-8c3.1-3.3,8.1-4.7,12.8-2.8c9.3,3.8,17.5,9.4,24.6,16.7
		C362.2,636.9,369.4,658,369.4,684.9z"/>
	<path id="SVGID_x5F_00000010280296678517071280000018283263804470941605_x5F_" class="st8" d="M229.3,714.9l9.5,16
		c15.4,26.1,48.2,36,75.4,22.8l0,0c25.1-12.1,38.1-40.5,30.8-67.5l-3.8-14"/>
	<text>	<textPath  xlink:href="#SVGID_x5F_00000010280296678517071280000018283263804470941605_x5F_" startOffset="4.6875%">
<tspan  style="fill:#FFFFFF; font-family:'Arial-BoldMT'; font-size:18.1929px;">MEDZA Audrey</tspan>	</textPath>
</text>
</g>
</svg>
